<svg xmlns="http://www.w3.org/2000/svg" version="1.1" xmlns:xlink="http://www.w3.org/1999/xlink" xmlns:svgjs="http://svgjs.dev/svgjs" width="1500" height="935" viewBox="0 0 1500 935"><g transform="matrix(1,0,0,1,-0.9090909090909918,0.3785425101214628)"><svg viewBox="0 0 396 247" data-background-color="#ffffff" preserveAspectRatio="xMidYMid meet" height="935" width="1500" xmlns="http://www.w3.org/2000/svg" xmlns:xlink="http://www.w3.org/1999/xlink"><g id="tight-bounds" transform="matrix(1,0,0,1,0.2400000000000091,-0.09999999999999432)"><svg viewBox="0 0 395.52 247.2" height="247.2" width="395.52"><g><svg></svg></g><g><svg viewBox="0 0 395.52 247.2" height="247.2" width="395.52"><mask id="dd9c1149-dba6-4b75-828f-3e13ed88107f"><rect width="640" height="400" fill="white"></rect><g transform="matrix(1,0,0,1,127.45664138678222,37.08)"><svg viewBox="0 0 140.60671722643553 173.04" height="173.04" width="140.60671722643553"><g><svg viewBox="0 0 140.60671722643553 173.04" height="173.04" width="140.60671722643553"><g><svg viewBox="0 0 140.60671722643553 173.04" height="173.04" width="140.60671722643553"><g id="SvgjsG1670"><svg viewBox="0 0 140.60671722643553 173.04" height="173.04" width="140.60671722643553" id="SvgjsSvg1669"><g><svg viewBox="0 0 140.60671722643553 173.04" height="173.04" width="140.60671722643553"><g transform="matrix(1,0,0,1,0,0)"><svg width="140.60671722643553" viewBox="-3.75 -41.3 38.5 47.15" height="173.04" data-palette-color="#2563eb"><path d="M16.1 0.35Q9.95 0.35 6-2.58 2.05-5.5 1.75-10.95L1.75-10.95 12.2-10.95Q12.35-9.1 13.3-8.25 14.25-7.4 15.75-7.4L15.75-7.4Q17.1-7.4 17.98-8.08 18.85-8.75 18.85-9.95L18.85-9.95Q18.85-11.5 17.4-12.35 15.95-13.2 12.7-14.25L12.7-14.25Q9.25-15.4 7.13-16.48 5-17.55 3.43-19.63 1.85-21.7 1.85-25.05L1.85-25.05Q1.85-28.45 3.55-30.88 5.25-33.3 8.25-34.55 11.25-35.8 15.05-35.8L15.05-35.8Q21.2-35.8 24.88-32.93 28.55-30.05 28.8-24.85L28.8-24.85 18.15-24.85Q18.1-26.45 17.18-27.25 16.25-28.05 14.8-28.05L14.8-28.05Q13.7-28.05 13-27.4 12.3-26.75 12.3-25.55L12.3-25.55Q12.3-24.55 13.08-23.83 13.85-23.1 15-22.58 16.15-22.05 18.4-21.25L18.4-21.25Q21.75-20.1 23.93-18.98 26.1-17.85 27.68-15.83 29.25-13.8 29.25-10.7L29.25-10.7Q29.25-7.55 27.68-5.05 26.1-2.55 23.13-1.1 20.15 0.35 16.1 0.35L16.1 0.35Z" opacity="1" transform="matrix(1,0,0,1,0,0)" fill="black" class="wordmark-text-0" id="SvgjsPath1668" stroke-width="10" stroke="black" stroke-linejoin="round"></path></svg></g></svg></g></svg></g></svg></g><g></g></svg></g></svg></g></mask><g transform="matrix(1,0,0,1,127.45664138678222,37.08)"><svg viewBox="0 0 140.60671722643553 173.04" height="173.04" width="140.60671722643553"><g><svg viewBox="0 0 140.60671722643553 173.04" height="173.04" width="140.60671722643553"><g><svg viewBox="0 0 140.60671722643553 173.04" height="173.04" width="140.60671722643553"><g id="textblocktransform"><svg viewBox="0 0 140.60671722643553 173.04" height="173.04" width="140.60671722643553" id="textblock"><g><svg viewBox="0 0 140.60671722643553 173.04" height="173.04" width="140.60671722643553"><g transform="matrix(1,0,0,1,0,0)"><svg width="140.60671722643553" viewBox="-3.75 -41.3 38.5 47.15" height="173.04" data-palette-color="#2563eb"><path d="M16.1 0.35Q9.95 0.35 6-2.58 2.05-5.5 1.75-10.95L1.75-10.95 12.2-10.95Q12.35-9.1 13.3-8.25 14.25-7.4 15.75-7.4L15.75-7.4Q17.1-7.4 17.98-8.08 18.85-8.75 18.85-9.95L18.85-9.95Q18.85-11.5 17.4-12.35 15.95-13.2 12.7-14.25L12.7-14.25Q9.25-15.4 7.13-16.48 5-17.55 3.43-19.63 1.85-21.7 1.85-25.05L1.85-25.05Q1.85-28.45 3.55-30.88 5.25-33.3 8.25-34.55 11.25-35.8 15.05-35.8L15.05-35.8Q21.2-35.8 24.88-32.93 28.55-30.05 28.8-24.85L28.8-24.85 18.15-24.85Q18.1-26.45 17.18-27.25 16.25-28.05 14.8-28.05L14.8-28.05Q13.7-28.05 13-27.4 12.3-26.75 12.3-25.55L12.3-25.55Q12.3-24.55 13.08-23.83 13.85-23.1 15-22.58 16.15-22.05 18.4-21.25L18.4-21.25Q21.75-20.1 23.93-18.98 26.1-17.85 27.68-15.83 29.25-13.8 29.25-10.7L29.25-10.7Q29.25-7.55 27.68-5.05 26.1-2.55 23.13-1.1 20.15 0.35 16.1 0.35L16.1 0.35Z" opacity="1" transform="matrix(1,0,0,1,0,0)" fill="#2563eb" class="wordmark-text-0" data-fill-palette-color="primary" id="text-0"></path></svg></g></svg></g></svg></g></svg></g><g></g></svg></g></svg></g><g mask="url(#dd9c1149-dba6-4b75-828f-3e13ed88107f)"><g transform="matrix(7.3819845857418125, 0, 0, 7.3819845857418125, 21.976492052023076, 1)"><svg xmlns="http://www.w3.org/2000/svg" xmlns:xlink="http://www.w3.org/1999/xlink" version="1.1" x="0" y="0" viewBox="1.012 8.212 47.625 33.215999999999994" enable-background="new 0 0 50 50" xml:space="preserve" height="33.215999999999994" width="47.625" class="icon-none" data-fill-palette-color="accent" id="none"><g fill="#2563eb" data-fill-palette-color="accent"><polygon fill="#2563eb" points="19.937,10.508 17.653,8.212 1.012,24.792 17.647,41.428 19.94,39.135 5.603,24.794  " data-fill-palette-color="accent"></polygon><polygon fill="#2563eb" points="29.714,10.508 44.046,24.794 29.711,39.135 32.004,41.428 48.637,24.792 32.001,8.212  " data-fill-palette-color="accent"></polygon></g></svg></g></g></svg></g><defs></defs></svg><rect width="395.52" height="247.2" fill="none" stroke="none" visibility="hidden"></rect></g></svg></g></svg>